<?xml version="1.0" encoding="utf-8"?>
<!-- Generator: Adobe Illustrator 27.3.1, SVG Export Plug-In . SVG Version: 6.00 Build 0)  -->
<svg version="1.1" xmlns="http://www.w3.org/2000/svg" xmlns:xlink="http://www.w3.org/1999/xlink" x="0px" y="0px"
	 viewBox="0 0 1920 1080" style="enable-background:new 0 0 1920 1080;" xml:space="preserve">
<style type="text/css">
	.st0{display:none;}
	.st1{display:inline;fill:#23162C;}
	.st2{display:inline;fill:#FFF9F0;}
	.st3{display:inline;fill:url(#SVGID_1_);}
	.st4{display:inline;}
	.st5{display:inline;fill:url(#SVGID_00000134948276940189254250000004719475347212165536_);}
	.st6{fill:url(#SVGID_00000118399168021988548300000010390623345505432501_);}
	.st7{fill:url(#SVGID_00000142875477805665405900000010673357539222774711_);}
	.st8{display:inline;fill:none;stroke:#000000;stroke-width:39.9041;stroke-miterlimit:10;}
	.st9{fill:url(#SVGID_00000083773475065310701310000012403329680687858867_);}
	.st10{fill:url(#SVGID_00000155860025025805458180000012571124175760151475_);}
	.st11{fill:url(#SVGID_00000145769735879190623170000001156424581034824889_);}
	.st12{fill:url(#SVGID_00000031914852054330886150000003261594268186260107_);}
	.st13{fill:url(#SVGID_00000052806599683831591520000003909766471907866810_);}
	.st14{display:inline;fill:#FFD564;}
	.st15{display:inline;fill:none;stroke:#FFD564;stroke-miterlimit:10;}
	.st16{fill:#FFD564;}
	.st17{fill:#FFFFFF;}
	.st18{fill:none;stroke:#FFD564;stroke-miterlimit:10;}
	.st19{fill:url(#SVGID_00000058549053599385023870000003175994142614307482_);}
	.st20{fill:url(#SVGID_00000006698370385674379040000016655690722209994642_);}
	.st21{fill:url(#SVGID_00000098913168222750906980000004577345371777693358_);}
	.st22{fill:url(#SVGID_00000083079751863511075340000007545847008220820636_);}
	.st23{fill:url(#SVGID_00000130620368652910069820000007251176788660457904_);}
	.st24{fill:url(#SVGID_00000119826848242548387400000008030794360698733191_);}
	.st25{fill:url(#SVGID_00000148660779563473553160000010457722177666250131_);}
	.st26{fill:url(#SVGID_00000162320416479034316620000003834893052836347287_);}
	.st27{fill:url(#SVGID_00000134960085364801468890000016158338873436573600_);}
	.st28{fill:url(#SVGID_00000076572136340526629060000015842272409347716242_);}
	.st29{fill:url(#SVGID_00000039106801358077738670000015054488157383264434_);}
	.st30{fill:url(#SVGID_00000002351249607953543880000004875321096335095214_);}
	.st31{fill:url(#SVGID_00000150794455844946863250000014175855822866700724_);}
	.st32{fill:url(#SVGID_00000023969981329598255080000006762172687275364255_);}
	.st33{fill:url(#SVGID_00000163036063420470532090000013380772476157410179_);}
	.st34{fill:url(#SVGID_00000124871376071441894200000005752627412411888572_);}
	.st35{fill:url(#SVGID_00000013877438159774522060000018363104223655148164_);}
	.st36{fill:url(#SVGID_00000065063205183303831950000014658311787021923769_);}
	.st37{fill:url(#SVGID_00000090993625989478135610000010495589714995545534_);}
	.st38{fill:url(#SVGID_00000113320551756399691610000000146220467749925510_);}
	.st39{fill:url(#SVGID_00000157271706505445273400000013882275358104071863_);}
	.st40{fill:url(#SVGID_00000090274516629942027630000015096984885403002768_);}
	.st41{fill:url(#SVGID_00000096052053921583061800000014433296863922632113_);}
	.st42{fill:url(#SVGID_00000166636243754849496980000006700164324637111208_);}
	.st43{fill:url(#SVGID_00000115495182586039781050000018145660545128614551_);}
	.st44{fill:url(#SVGID_00000022532977645289995420000012684092343698290590_);}
	.st45{fill:url(#SVGID_00000142887607614307298000000015858453770392205973_);}
	.st46{fill:url(#SVGID_00000111876238564439290810000002706813719547567254_);}
	.st47{fill:url(#SVGID_00000142138155380836539310000017883126687862607521_);}
	.st48{fill:url(#SVGID_00000027566028891941453000000004571307573491947684_);}
	.st49{fill:url(#SVGID_00000116927400898414768240000006672678288028941748_);}
	.st50{fill:url(#SVGID_00000096021682428085936480000016419678512501564311_);}
	.st51{fill:url(#SVGID_00000002384180842315042160000004120379281417313201_);}
	.st52{fill:url(#SVGID_00000171000454025531538010000009298012365582751140_);}
	.st53{fill:url(#SVGID_00000122701219318246364130000009521259664644287402_);}
	.st54{fill:url(#SVGID_00000171710827886797709060000000063769486096835752_);}
	.st55{display:inline;fill:url(#SVGID_00000032643575592031835110000012973938748090781356_);}
	.st56{fill:url(#SVGID_00000106833843499591587420000002925141261613566652_);}
	.st57{fill:url(#SVGID_00000067226475162357996360000016719005797524856196_);}
	.st58{fill:url(#SVGID_00000010277165242783157770000014368131331089965199_);}
	.st59{fill:url(#SVGID_00000019659717355876553430000014712833938683820463_);}
	.st60{fill:url(#SVGID_00000039826961527432233040000005609881923336425368_);}
	.st61{fill:url(#SVGID_00000169556747204869416230000008778482506049856130_);}
	.st62{fill:url(#SVGID_00000020356409819836489350000004090382181657393077_);}
	.st63{fill:url(#SVGID_00000183212498124574176110000013314080234417308570_);}
	.st64{fill:url(#SVGID_00000068662345371500189670000000101762994954795703_);}
	.st65{fill:url(#SVGID_00000123426994140886133780000009424601989336564908_);}
	.st66{fill:url(#SVGID_00000163755742272374995860000005889533817812675764_);}
	.st67{fill:url(#SVGID_00000045596112810807425220000010566877285745944248_);}
	.st68{fill:url(#SVGID_00000010290927404220068400000003123856146104432039_);}
	.st69{fill:url(#SVGID_00000093153100943393121660000009208865260125959338_);}
	.st70{fill:url(#SVGID_00000162354074092439508990000015054430204781499800_);}
	.st71{fill:url(#SVGID_00000066516277543221117980000003960186903980449209_);}
	.st72{fill:url(#SVGID_00000013906383375521127110000013506511640669342853_);}
	.st73{fill:url(#SVGID_00000124119415954907672550000016153509892223150485_);}
	.st74{display:inline;fill:url(#SVGID_00000060022763582437285380000009643094242071108740_);}
	.st75{display:inline;fill:url(#SVGID_00000135662016380188218430000017144290758726495627_);}
	.st76{fill:url(#SVGID_00000111181240499541733970000015762634318404850597_);}
	.st77{fill:url(#SVGID_00000052792774719346975320000007372353674768740515_);}
	.st78{fill:url(#SVGID_00000112596250896119749020000018080464050825610630_);}
	.st79{fill:url(#SVGID_00000177471360911218900740000000014613506261578368_);}
	.st80{fill:url(#SVGID_00000165925943457405002910000012542083403958641084_);}
	.st81{fill:url(#SVGID_00000011731407559694365750000008183232543098399162_);}
	.st82{fill:url(#SVGID_00000179611661040528946540000008567308255669017753_);}
	.st83{fill:url(#SVGID_00000157293764902133337130000000131548700420940434_);}
	.st84{fill:url(#SVGID_00000061451400790046844960000014976264598099889563_);}
	.st85{fill:url(#SVGID_00000142889750114324861190000010703190835338362769_);}
	.st86{fill:url(#SVGID_00000029012726979709407860000006928993852884282559_);}
	.st87{fill:url(#SVGID_00000062168421954452005880000012220576548613687452_);}
	.st88{fill:url(#SVGID_00000067212550186010921670000004526170351966181538_);}
	.st89{fill:url(#SVGID_00000114790765491783226240000000018133434507412611_);}
	.st90{fill:url(#SVGID_00000103973051115337607430000011502696072533049266_);}
	.st91{fill:url(#SVGID_00000161620282922619928480000012231010975783058101_);}
	.st92{fill:#23162C;}
	.st93{fill:url(#SVGID_00000052094721038916922580000008503804589887109040_);}
	.st94{fill:url(#SVGID_00000125604010018876445960000010607704761483079098_);}
	.st95{fill:url(#SVGID_00000060031224153096333880000006462224428720056757_);}
	.st96{fill:url(#SVGID_00000147919348059191277590000000812951508080340151_);}
	.st97{fill:url(#SVGID_00000008137690511003591600000018436567330623746744_);}
	.st98{fill:url(#SVGID_00000025410964337563002900000009783821000006494891_);}
	.st99{fill:url(#SVGID_00000078041038916514693620000017580406047045681332_);}
	.st100{fill:url(#SVGID_00000008146325124937531100000000445345831535306426_);}
	.st101{fill:url(#SVGID_00000010993946305827705820000009575394478942631333_);}
	.st102{fill:url(#SVGID_00000029026530142287034020000009612012389446102204_);}
	.st103{fill:url(#SVGID_00000165194546370140884080000012226449140357876927_);}
	.st104{fill:url(#SVGID_00000150069007989096952980000007899471528572897705_);}
	.st105{fill:url(#SVGID_00000173145286962752665340000002815678057240192896_);}
	.st106{fill:url(#SVGID_00000026883443737328501510000002450857762501634971_);}
	.st107{fill:url(#SVGID_00000047760135659607664380000017602523764748070055_);}
	.st108{fill:url(#SVGID_00000001663577646876185500000015242925934033698700_);}
	.st109{fill:url(#SVGID_00000100354327556792015540000000788815575824543679_);}
	.st110{fill:url(#SVGID_00000050621042765953420100000007154275197674442886_);}
	.st111{fill:url(#SVGID_00000045608991551881062550000016398456275249410445_);}
	.st112{fill:url(#SVGID_00000062158295454413449560000012790797593745628291_);}
	.st113{fill:url(#SVGID_00000134228680081053256610000005163418414645025705_);}
	.st114{fill:url(#SVGID_00000170985350308604218080000013877736645472213383_);}
	.st115{fill:url(#SVGID_00000070797740607584729950000013305119009116880541_);}
	.st116{fill:url(#SVGID_00000158748307193574227050000003212735451403582911_);}
	.st117{fill:url(#SVGID_00000111185933420708066540000016113502087383262100_);}
	.st118{fill:url(#SVGID_00000182524014955240633930000016080426651536158399_);}
	.st119{fill:url(#SVGID_00000031894112902761024450000016972363001799329162_);}
	.st120{fill:url(#SVGID_00000130626820682458945290000018229021115150191242_);}
	.st121{fill:url(#SVGID_00000148658550180882848820000004427984230197875886_);}
	.st122{fill:url(#SVGID_00000103963460650288125520000005938977436654783381_);}
	.st123{fill:url(#SVGID_00000045620136993451420980000000232238885072592563_);}
	.st124{fill:url(#SVGID_00000104697559945169047400000005160322265843317661_);}
	.st125{fill:url(#SVGID_00000132046291298698840430000015251034541667427467_);}
	.st126{fill:url(#SVGID_00000057148171520978830280000016171784777569346985_);}
	.st127{fill:url(#SVGID_00000085214850440845393170000014772942201217062026_);}
	.st128{fill:url(#SVGID_00000045606743858048762750000001560344844686396547_);}
	.st129{fill:url(#SVGID_00000067233301303636088740000010238469602419990419_);}
	.st130{fill:url(#SVGID_00000027601791012104455500000005017238565187972775_);}
	.st131{fill:url(#SVGID_00000177472078382302309750000003002594968972174477_);}
	.st132{fill:url(#SVGID_00000147927803788866351190000016244463670418295739_);}
	.st133{fill:url(#SVGID_00000109741054846809256150000013632741266755701910_);}
	.st134{fill:url(#SVGID_00000173875009407175602960000009093467991226920895_);}
	.st135{fill:url(#SVGID_00000166658817430485215380000003856679912013768079_);}
	.st136{fill:url(#SVGID_00000180324352159764162490000004339265539103238530_);}
	.st137{fill:url(#SVGID_00000029768405572757063510000010683279431175230597_);}
	.st138{fill:url(#SVGID_00000028284014158356549340000005647962817220223149_);}
	.st139{display:inline;fill:none;stroke:#FF5A38;stroke-width:5.0104;stroke-miterlimit:10;stroke-dasharray:12.0249;}
	.st140{fill:#FF5A38;}
	.st141{fill:none;stroke:#FF5A38;stroke-width:5;stroke-miterlimit:10;}
	.st142{fill:none;stroke:#FF5A38;stroke-width:5;stroke-miterlimit:10;stroke-dasharray:12.2044,12.2044;}
	.st143{fill:none;stroke:#FF5A38;stroke-width:5;stroke-miterlimit:10;stroke-dasharray:12.2199,12.2199;}
	.st144{fill:none;stroke:#FF5A38;stroke-width:5;stroke-miterlimit:10;stroke-dasharray:12.194,12.194;}
	.st145{fill:none;stroke:#FF5A38;stroke-width:5;stroke-miterlimit:10;stroke-dasharray:12.1202,12.1202;}
	.st146{display:inline;fill:none;stroke:#FF5A38;stroke-width:5.0104;stroke-miterlimit:10;}
	.st147{display:inline;fill:#FF5A38;}
	.st148{fill:#FF151C;}
	.st149{display:inline;fill:#FF151C;}
	.st150{fill:#8D5701;}
	.st151{fill:url(#SVGID_00000161599361776213502650000004777617708061411714_);}
	.st152{fill:url(#SVGID_00000080926740796279226950000010228648583157373080_);}
</style>
<g id="Layer_1" class="st0">
</g>
<g id="Layer_2">
	<g>
		<linearGradient id="SVGID_1_" gradientUnits="userSpaceOnUse" x1="960" y1="901.4387" x2="960" y2="140.0736">
			<stop  offset="5.586592e-03" style="stop-color:#FDC965"/>
			<stop  offset="0.3659" style="stop-color:#8B5500"/>
			<stop  offset="0.7374" style="stop-color:#FDC965"/>
			<stop  offset="1" style="stop-color:#8B5500"/>
		</linearGradient>
		<path style="fill:url(#SVGID_1_);" d="M1015.47,541.43l111.58-0.83l-0.86,0.86c-2.53,2.53-5.97,3.96-9.56,3.96h-91.57
			c-3.59,0-7.02-1.42-9.56-3.96L1015.47,541.43z M793.82,541.46c2.53,2.53,5.97,3.96,9.56,3.96h91.57c3.59,0,7.02-1.42,9.56-3.96
			l0.04-0.04l-111.58-0.83L793.82,541.46z M986.18,426.45H960H960h-26.17c-2.11,0-3.82,1.71-3.82,3.82c0,2.11,1.71,3.82,3.82,3.82
			H960H960h26.17c2.11,0,3.82-1.71,3.82-3.82C990,428.16,988.29,426.45,986.18,426.45z M1187.06,522.69
			c0,56.27-20.48,107.74-54.37,147.41h-100.92v-9.52h-20.9v-18.12H909.13v18.12h-20.9v9.52H787.31
			c-33.89-39.67-54.37-91.15-54.37-147.41c0-125.4,101.66-227.06,227.06-227.06S1187.06,397.28,1187.06,522.69z M965.83,392.69
			c0,0,20.82,0,32.31,0c7.33-8.66,27.15-22.82,42.64-17.65c6.88,2.29,16.48,5.83,26.01,7.61l-59.45,143.42h9.54l51.4-130.02v129.2
			h7.4V396.63l51.17,129.44h9.54l-58.99-142.32c7.94,0.03,15.01-2.15,19.32-8.56c10.64-15.84-2.8-25.13-2.8-25.13
			c3.5,9.33-0.33,15.49-7.16,18.82c-18.99,6.16-19.65-17.16-58.63-17.16C989.14,351.72,965.83,392.69,965.83,392.69z M960,446.25
			L960,446.25L960,446.25L960,446.25L960,446.25l-31.48,0.87v136.93c0.04,3.7-1.69,8.19-7.16,14.32H960H960h38.64
			c-5.47-6.13-7.2-10.62-7.16-14.32V447.13L960,446.25z M1002.16,431.05L1002.16,431.05c0-6.33-5.13-11.46-11.46-11.46H960H960
			h-30.7c-6.33,0-11.46,5.13-11.46,11.46v0c0,6.33,5.13,11.46,11.46,11.46H960H960h30.7
			C997.03,442.51,1002.16,437.38,1002.16,431.05z M929.36,409.51c0,2.66,0,5.83,0,5.83H960H960h30.64c0,0,0-3.16,0-5.83
			c0-2.66,4-11.99,4-11.99H960H960h-34.64C925.36,397.52,929.36,406.85,929.36,409.51z M960,338.23L960,338.23
			C960,338.23,960,338.23,960,338.23C960,338.23,960,338.23,960,338.23L960,338.23c15.55-0.01,15.55-23.58,0.01-23.59v0c0,0,0,0,0,0
			c0,0,0,0,0,0v0C944.45,314.65,944.45,338.22,960,338.23z M941.13,350.94c0,5.21,4.23,9.44,9.44,9.44h3.61
			c-6.83,4.65-5.67,22.08,5.82,23.28v0c0,0,0,0,0,0c0,0,0,0,0,0v0c11.5-1.2,12.65-18.63,5.82-23.28h3.61c5.21,0,9.44-4.23,9.44-9.44
			c0-5.21-4.23-9.44-9.44-9.44H960H960h-9.43C945.35,341.5,941.13,345.73,941.13,350.94z M783.62,526.06h9.54l51.17-129.44v128.62
			h7.4v-129.2l51.4,130.02h9.54l-59.45-143.42c9.53-1.78,19.13-5.32,26.01-7.61c15.49-5.16,35.31,8.99,42.64,17.65
			c11.49,0,32.31,0,32.31,0s-23.32-40.97-62.29-40.97s-39.64,23.32-58.63,17.16c-6.83-3.33-10.66-9.49-7.16-18.82
			c0,0-13.44,9.29-2.8,25.13c4.31,6.41,11.38,8.59,19.32,8.56L783.62,526.06z M830.9,640.67c4.19-2.04,9.6-9.79,9.59-13.15
			c0,0-8.4-5.11-17.78-0.09c-6.13,2.9-9.86,8.65-11.42,10.27c-1.56,1.62-2.71,2.6-3.05,3.95
			C812.14,639.04,820.82,644.33,830.9,640.67z M866.93,644.07c-12.24-5.03-23.36-1.18-32.9,15.33c2.47-0.54,13.1,2.19,21.01-1.28
			C862.94,654.65,866.93,644.07,866.93,644.07z M882.51,649.93c-29.23-27.92-47.78-30.97-58.43-34.03
			c-6.96-8.33-23.99-13.33-35.05-1.65c10.22-0.42,25.04,12.73,35.26,5.22C848.71,623.64,882.51,649.93,882.51,649.93z
			 M806.99,582.73c0.56,2.81,0.62,11.52,5.2,18.83c6.61,11.81,19.11,12.09,19.11,12.09c2.31-3.59,1.83-15.6-1.26-20.66
			c-8.29-10.82-21.22-11.1-23.61-16.58C805.87,578.1,806.43,579.92,806.99,582.73z M857.45,623.07c0,0,8.01-11.95,5.76-22.7
			c-2.25-10.75-12.93-19.75-14.2-22.7C838.97,599.75,843.2,614.12,857.45,623.07z M887.53,620.64c5.1-8.83,3.29-21.67,4.24-24.49
			c-20.63,9.05-26.6,21.61-22.29,36.63C869.48,632.77,882.43,629.47,887.53,620.64z M907.04,619.07
			c-1.87,4.28-11.97,4.5-18.44,12.95c-2.42,3.95-2.79,13.33-0.99,16.14c0,0,9.77-0.22,14.93-9.44c3.58-5.71,3.62-12.52,4.06-14.71
			C907.04,621.81,907.48,620.39,907.04,619.07z M914.53,533.6H780.29c0,17.66,26.16,31.98,43.82,31.98h46.59
			c8.82,0,19.79-3.58,28.53-9.37C907.99,550.43,914.53,542.42,914.53,533.6z M998.64,626.53H960H960h-38.64c0,0,2.71,3.07,2.71,5.59
			c0,2.53,1.08,5.95,9.38,5.95c8.27,0,26.42,0,26.54,0c0,0,0.01,0,0.01,0c0.12,0,18.27,0,26.54,0c8.3,0,9.38-3.43,9.38-5.95
			C995.92,629.6,998.64,626.53,998.64,626.53z M1006.35,602.8H960H960h-46.34v7.77c0,5.76,4.67,10.44,10.44,10.44H960H960h35.91
			c5.76,0,10.44-4.67,10.44-10.44V602.8z M1031.4,632.02c-6.48-8.45-16.58-8.67-18.44-12.95c-0.44,1.32,0,2.74,0.44,4.94
			c0.44,2.2,0.48,9,4.06,14.71c5.16,9.22,14.93,9.44,14.93,9.44C1034.19,645.35,1033.82,635.98,1031.4,632.02z M1050.52,632.77
			c4.31-15.02-1.66-27.58-22.29-36.63c0.95,2.83-0.86,15.66,4.24,24.49S1050.52,632.77,1050.52,632.77z M1074.5,651.79
			c-2.5-0.38-11.45-6.74-20.07-6.33c-8.63,0.41-16.14,8.86-16.14,8.86C1047.91,663.4,1059.67,663.79,1074.5,651.79z M1101.31,635.06
			c-4.51,1.2-10.96-6.58-21.61-6.41c-4.6,0.56-12.18,6.09-13.26,9.25c0,0,6.24,7.52,16.67,5.84c6.7-0.74,12.06-4.93,14.05-5.95
			C1099.16,636.77,1100.55,636.23,1101.31,635.06z M1130.96,614.25c-11.06-11.68-28.09-6.68-35.05,1.65
			c-10.65,3.06-29.2,6.11-58.43,34.03c0,0,33.8-26.29,58.21-30.46C1105.93,626.98,1120.74,613.84,1130.96,614.25z M1062.55,623.07
			c14.25-8.95,18.48-23.32,8.43-45.4c-1.27,2.95-11.95,11.95-14.2,22.7C1054.54,611.12,1062.55,623.07,1062.55,623.07z
			 M1139.71,533.6h-134.24c0,8.82,6.54,16.83,15.29,22.61c8.74,5.79,19.71,9.37,28.53,9.37h46.59
			C1113.54,565.58,1139.71,551.26,1139.71,533.6z M960,610.35h-30.24c-1.66,0-3,1.34-3,3c0,1.66,1.34,3,3,3H960H960h30.24
			c1.66,0,3-1.34,3-3c0-1.66-1.34-3-3-3H960L960,610.35z M960,408.68L960,408.68h19.49l4.08-4.08H960H960h-23.56l4.08,4.08H960z
			 M796.51,679.64c0.13,0.14,0.27,0.28,0.39,0.41h326.2c0.13-0.13,0.26-0.27,0.39-0.41c1.34-1.39,2.55-2.69,3.71-3.97H792.8
			C793.96,676.96,795.17,678.26,796.51,679.64z M866.1,729.29c0.4,0.19,0.82,0.36,1.22,0.54c58.23,24.26,119.8,25.75,185.36,0
			c0.4-0.19,0.82-0.36,1.22-0.54c2.57-1.16,5.19-2.43,7.98-3.84H858.12C860.91,726.87,863.53,728.13,866.1,729.29z M831.28,709.44
			c0.23,0.17,0.47,0.32,0.71,0.49h256.02c0.24-0.17,0.49-0.32,0.71-0.49c1.84-1.28,3.66-2.58,5.42-3.9H825.86
			C827.62,706.86,829.44,708.16,831.28,709.44z M846.9,719.38c0.3,0.17,0.62,0.33,0.91,0.51h224.37c0.3-0.18,0.62-0.34,0.91-0.51
			c2.24-1.3,4.37-2.59,6.42-3.87H840.48C842.53,716.79,844.66,718.08,846.9,719.38z M818.04,699.51c0.19,0.15,0.39,0.31,0.58,0.46
			h282.76c0.19-0.15,0.39-0.31,0.58-0.46c1.67-1.35,3.21-2.64,4.71-3.92H813.33C814.83,696.86,816.37,698.16,818.04,699.51z
			 M807.62,690.54v-0.52h304.77v0.52c1.71-1.56,3.45-3.2,5.19-4.9H802.43C804.17,687.34,805.91,688.98,807.62,690.54z
			 M712.24,287.65l-4.39-3.98c-3.24,3.58-6.46,7.28-9.56,10.99l4.55,3.79C705.89,294.81,709.05,291.17,712.24,287.65z
			 M827.65,204.58l-2.35-5.44c-4.45,1.92-8.91,3.97-13.27,6.08l2.59,5.33C818.89,208.47,823.28,206.46,827.65,204.58z
			 M732.33,267.23l-4.05-4.32c-3.53,3.3-7.04,6.72-10.43,10.17l4.22,4.15C725.41,273.84,728.86,270.48,732.33,267.23z
			 M854.44,194.37l-1.86-5.62c-4.6,1.52-9.23,3.17-13.75,4.9l2.11,5.53C845.37,197.49,849.92,195.87,854.44,194.37z M801.86,217.09
			l-2.82-5.21c-4.25,2.29-8.51,4.72-12.68,7.21l3.04,5.08C793.5,221.72,797.69,219.34,801.86,217.09z M882.01,186.56l-1.36-5.76
			c-4.72,1.12-9.46,2.35-14.11,3.67l1.61,5.7C872.71,188.87,877.38,187.66,882.01,186.56z M693.89,309.65l-4.7-3.61
			c-2.94,3.83-5.84,7.77-8.63,11.72l4.84,3.42C688.14,317.29,691,313.41,693.89,309.65z M777.27,231.79l-3.26-4.95
			c-4.03,2.65-8.07,5.44-12,8.28l3.47,4.8C769.34,237.14,773.31,234.4,777.27,231.79z M938.63,178.21l-0.36-5.91
			c-4.85,0.3-9.73,0.7-14.52,1.2l0.61,5.89C929.06,178.9,933.86,178.5,938.63,178.21z M754.05,248.56l-3.67-4.65
			c-3.79,2.99-7.58,6.11-11.25,9.27l3.86,4.49C746.6,254.56,750.32,251.5,754.05,248.56z M910.14,181.17l-0.86-5.86
			c-4.8,0.71-9.63,1.52-14.37,2.43l1.11,5.82C900.67,182.67,905.42,181.87,910.14,181.17z M669.82,345.22
			c2.43-4.09,4.97-8.18,7.55-12.17l-4.97-3.22c-2.63,4.05-11.9,17.06-12.98,34.12C660.51,361.85,668.7,347.28,669.82,345.22z
			 M1250.74,345.23c1.12,2.06,9.31,16.62,10.39,18.71c0,0-4.71-22.99-13.01-34.14l-4.97,3.22
			C1245.75,337.02,1248.3,341.12,1250.74,345.23C1250.74,345.23,1250.74,345.23,1250.74,345.23z M1108.13,205.2
			c-4.36-2.11-8.83-4.15-13.26-6.07l-2.35,5.44c4.36,1.88,8.74,3.88,13.03,5.96L1108.13,205.2z M1133.81,219.04
			c-4.16-2.48-8.43-4.9-12.69-7.2l-2.81,5.21c4.18,2.25,8.38,4.63,12.47,7.07L1133.81,219.04z M1025.27,177.77
			c-4.75-0.91-9.59-1.73-14.39-2.44l-0.86,5.86c4.71,0.7,9.47,1.5,14.14,2.4L1025.27,177.77z M1053.68,184.5
			c-4.66-1.32-9.42-2.56-14.13-3.67l-1.36,5.76c4.63,1.1,9.3,2.31,13.88,3.61L1053.68,184.5z M1081.35,193.66
			c-4.53-1.72-9.15-3.36-13.74-4.88l-1.86,5.62c4.51,1.49,9.04,3.1,13.49,4.8L1081.35,193.66z M1158.2,235.05
			c-3.94-2.83-7.99-5.62-12.03-8.27l-3.25,4.95c3.97,2.6,7.94,5.34,11.82,8.12L1158.2,235.05z M1239.94,317.72
			c-2.8-3.95-5.71-7.91-8.67-11.75l-4.69,3.61c2.91,3.78,5.78,7.66,8.53,11.55L1239.94,317.72z M1181.15,253.08
			c-3.68-3.15-7.47-6.27-11.28-9.26l-3.66,4.66c3.74,2.94,7.47,6.01,11.09,9.1L1181.15,253.08z M996.4,173.51
			c-4.81-0.5-9.7-0.91-14.54-1.21l-0.37,5.91c4.76,0.29,9.57,0.69,14.29,1.19L996.4,173.51z M1222.13,294.59
			c-3.11-3.72-6.34-7.43-9.59-11l-4.38,3.98c3.2,3.52,6.37,7.16,9.43,10.82L1222.13,294.59z M1198.28,277.14l4.21-4.16
			c-3.4-3.45-6.92-6.87-10.47-10.17l-4.04,4.33C1191.47,270.39,1194.94,273.76,1198.28,277.14z M975.21,174.6L960,159.39
			l-15.21,15.21L960,189.82L975.21,174.6z M1006.01,870.31c-11.29,1.68-22.68,2.75-34.1,3.26L960,861.66l-12,12
			c-106.05-4.12-203.04-60.87-263.33-148.1c-9.08-12.61-17.62-25.62-26.13-38.82c5.87,14.57,13.38,28.47,21.96,41.67
			c58.87,89.79,159.63,148.95,267.21,151.38L960,892.09l12.39-12.39c11.55-0.35,23.09-1.32,34.55-2.94
			c82.13-10.91,157.18-57.41,208.2-122c16.92-21.29,32.41-44.62,42.33-70.01c-17.03,25.98-33.64,52.01-54.19,75.28
			C1152.82,818.19,1082.56,859.39,1006.01,870.31z M1329.92,520.76c0,101.67-38.47,197.25-108.32,269.15
			c-69.87,71.92-162.78,111.53-261.6,111.53c-98.82,0-191.73-39.61-261.6-111.53c-69.85-71.9-108.32-167.48-108.32-269.15
			c0-38.53,5.59-76.52,16.58-112.97c-4.03-2.53-6.72-7-6.72-12.1c0-7.88,6.41-14.29,14.29-14.29c0.47,0,0.94,0.03,1.41,0.07
			c26.58-69.58,72.07-129.09,131.83-172.33c62.44-45.18,135.93-69.06,212.53-69.06c75.98,0,148.98,23.53,211.1,68.03
			c60.37,43.25,106.42,103.16,133.24,173.3c0.09,0,0.17-0.01,0.25-0.01c7.88,0,14.29,6.41,14.29,14.29c0,4.68-2.27,8.82-5.75,11.43
			C1324.26,443.77,1329.92,481.98,1329.92,520.76z M1296.24,395.69c0,4.61,3.75,8.36,8.36,8.36s8.36-3.75,8.36-8.36
			c0-4.61-3.75-8.36-8.36-8.36S1296.24,391.08,1296.24,395.69z M614.24,404.05c4.61,0,8.36-3.75,8.36-8.36
			c0-4.61-3.75-8.36-8.36-8.36s-8.36,3.75-8.36,8.36C605.88,400.3,609.63,404.05,614.24,404.05z M1323.99,520.76
			c0-37.91-5.49-75.27-16.29-111.12c-1,0.22-2.04,0.35-3.1,0.35c-7.88,0-14.29-6.41-14.29-14.29c0-5.7,3.36-10.62,8.2-12.91
			c-55.35-143.9-187.99-236.77-338.51-236.77c-148.74,0-284.21,95.14-338.7,237.27c4.31,2.46,7.23,7.1,7.23,12.41
			c0,7.88-6.41,14.29-14.29,14.29c-0.68,0-1.34-0.06-1.99-0.16c-10.76,35.79-16.23,73.1-16.23,110.93
			c0,206.64,163.28,374.75,363.98,374.75C1160.7,895.51,1323.99,727.39,1323.99,520.76z M960,787.05
			c-69.62,0-135.06-27.53-184.28-77.51c-49.21-49.97-76.31-116.41-76.31-187.08s27.1-137.11,76.31-187.08
			c49.22-49.99,114.67-77.51,184.28-77.51c69.61,0,135.06,27.53,184.28,77.51c49.21,49.97,76.31,116.41,76.31,187.08
			s-27.1,137.11-76.31,187.08C1095.06,759.52,1029.62,787.05,960,787.05z M1214.66,522.45c0-142.62-114.24-258.66-254.66-258.66
			c-140.42,0-254.66,116.03-254.66,258.66c0,142.63,114.24,258.66,254.66,258.66C1100.42,781.11,1214.66,665.08,1214.66,522.45z
			 M680.21,365.31c-7.28,3.19-10.21,8.03-11.57,10.82c-5.94,12.13-1.14,26.63,11.58,32.86c10.38,5.08,25.65,3.79,32.9-11
			c1.87-3.83,2.59-6.94,3.59-11.11c1.31-5.63,2.55-8.32,3.63-10.53l-10.06-4.92c-4.02-1.97-4.13-3.07-2.77-6.83l-2.92-1.43
			l-9.37,19.14l2.92,1.43c2.57-5.26,4.06-5.01,7.95-3.1c3.76,1.84,8.38,5.07,3.96,14.09c-5.69,11.61-18.06,7.32-25.14,3.86
			c-14.66-7.18-14.48-16.58-11.62-22.42c3.34-6.81,11.01-9.17,18.03-7.42l1.43-2.92l-14.24-6.57l-1.49,3.05
			C678.26,363.22,679.3,364.06,680.21,365.31z M689.73,338.76l6.5-8.95c1.11-1.43,3.24-4.52,5.84-7.63
			c2.64-3.16,5.58-6.46,8.07-8.37c4.09-3.14,10.38-5.11,16.03-0.72c3.71,2.88,5.73,7.93,2.64,15.32c3.97-1.58,6.94-1.28,15.63-0.57
			c8.17,0.68,9.92,0.3,12.33-2.31l2.57,2l-7.85,10.1c-2.86,0.15-6.89-0.32-10.85-0.75l-6.22-0.72c-7.73-0.89-8.19-0.88-12.1,4.14
			l-1.11,1.43l9.87,7.67c2.79,2.17,4.76,3.06,8.75-2.07l2.57,2l-14.72,18.94l-2.57-2c3.81-4.91,2.73-6.57-0.24-8.88l-23.84-18.54
			c-2.85-2.22-4.76-3.06-8.66,1.96L689.73,338.76z M702.94,327.53l15.17,11.8l1.37-1.77c2.75-3.54,7.66-9.97-0.04-15.96
			C711.81,315.66,706.47,322.77,702.94,327.53z M761.53,321.98l2.22,2.37l17.72-16.6l-2.22-2.37c-4.75,4.45-6.55,3.36-9.02,0.73
			l-20.55-21.94c-2.62-2.8-3.33-4.61,1.32-8.95l-2.22-2.37l-17.72,16.6l2.22,2.37c4.75-4.45,6.5-3.42,9.02-0.73l20.55,21.94
			C765.46,315.83,766.17,317.64,761.53,321.98z M761.46,265.28l-1.85-2.76l8.4-5.89c0.9-0.6,6.1-4.26,7.12-4.95
			c6.24-4.18,11.19-6.54,16.07-7.55c9.17-1.88,18.64,2.64,24.03,10.68c6.07,9.06,4.69,18.42,1.22,23.88
			c-3.55,5.6-8.19,9.06-11.98,11.59l-18.12,12.14l-1.81-2.7c5.28-3.54,4.88-5.44,2.75-8.62l-16.81-25.09
			C768.43,262.96,766.86,261.66,761.46,265.28z M775.91,255.95l18.7,27.91c2.69,4.02,3.86,5.76,9.02,2.3
			c10.62-7.12,6.51-18.45,2.01-25.17c-5.67-8.46-13.05-11.69-19.58-10.27C782.85,251.38,780.47,252.89,775.91,255.95z M817.94,230.4
			c5.92-2.69,7.25-1.15,8.78,2.21l12.41,27.37c1.58,3.49,1.67,5.43-4.12,8.06l1.34,2.96l22.11-10.03l-1.34-2.96
			c-5.92,2.69-7.28,1.08-8.78-2.21l-12.41-27.37c-1.58-3.49-1.67-5.43,4.12-8.06l-1.34-2.96l-22.11,10.03L817.94,230.4z
			 M875.23,234.4c8.12,1.24,12.16,1.94,13.44,6.31c1.08,3.68-0.96,7.51-5.68,8.89c-8.6,2.52-14.38-4.9-17.24-9.78l-3.12,0.91
			l4.61,15.74l3.12-0.91c-0.36-2.53-0.1-4.19,0.03-5.05c4.84,3.4,10.65,3.73,15.23,2.39c10.33-3.02,12.26-13.15,10.74-18.35
			c-2.35-8.04-10.58-9.4-19.17-10.72c-7.25-1.11-11.64-1.71-12.9-6.01c-0.99-3.4,0.95-6.53,5.04-7.72c8.46-2.48,13.51,5,14.85,7.02
			l3.19-0.93l-3.75-12.83l-3.19,0.93c0.17,2.13,0.17,3.41,0.07,4.35c-3.64-2.4-8.38-3.42-12.75-2.14
			c-9.01,2.64-11.89,11.08-10.16,16.98C858.75,227.48,862.07,232.38,875.23,234.4z M928.06,198.71l-0.28-3.24l-23.61,2.05l0.28,3.24
			c6.26-0.54,6.89,1.65,7.18,5.03l2.6,29.94c0.31,3.53-0.09,5.67-6.21,6.2l0.28,3.24l23.61-2.05l-0.28-3.24
			c-6.48,0.56-7.04-1.71-7.33-5.02l-1.24-14.32l22.1-1.92l1.24,14.32c0.31,3.53-0.09,5.66-6.21,6.2l0.28,3.24l23.47-2.04l-0.28-3.24
			c-6.41,0.56-6.91-1.87-7.18-5.03l-2.6-29.94c-0.29-3.38-0.06-5.65,6.21-6.2l-0.28-3.24l-23.47,2.04l0.28,3.24
			c6.33-0.55,6.89,1.65,7.18,5.03l1.02,11.73l-22.1,1.92l-1.02-11.73C921.41,201.39,921.8,199.25,928.06,198.71z M993.46,242.51
			l17.36,3.82l0.7-3.17c-6.84-1.51-6.52-3.65-5.45-8.52l5.67-25.75l22.55,43.06l3.18,0.7l8.15-37.04c1.1-5.01,1.59-6.9,8.44-5.39
			l0.7-3.17l-17.43-3.83l-0.7,3.17c6.49,1.43,6.18,3.87,5.18,8.39l-4.69,21.31l-19.69-37.25l-13.62-3l-0.7,3.17
			c6.19,2.1,5.76,4.74,4.4,10.95l-5.25,23.85c-1.04,4.73-1.47,7-8.1,5.54L993.46,242.51z M1061.27,247.13l27.24-27.45l3.04,1.35
			l-1.74,40c-0.28,6.51-0.43,8.82,4,10.78l-1.32,2.97l-20.61-9.12l1.32-2.97c2.71,1.2,5.02,2.22,5.96,0.11
			c0.18-0.4,0.43-1.15,0.48-2.16l0.23-6.06l-14.21-6.29l-2.31,2.37c-0.99,0.98-2.01,2.04-2.45,3.03c-1.32,2.97,2.19,4.52,3.71,5.2
			l-1.32,2.97l-15.07-6.67l1.32-2.97C1052.98,253.73,1055.4,253.07,1061.27,247.13z M1068.32,245.67l11.76,5.2l0.74-17.92
			L1068.32,245.67z M1099.68,274.76l-1.91,2.63l19.19,13.91l1.91-2.63c-5.27-3.82-4.2-5.9-2.25-8.59l8.44-11.64l17.96,13.02
			l-8.44,11.64c-2.08,2.87-3.77,4.22-8.75,0.62l-1.91,2.63l19.07,13.82l1.91-2.63c-5.21-3.77-4-5.93-2.13-8.51l17.64-24.34
			c1.99-2.75,3.66-4.31,8.75-0.62l1.91-2.63l-19.07-13.82l-1.91,2.63c5.15,3.73,4.13,5.76,2.13,8.51l-6.91,9.54l-17.96-13.02
			l6.91-9.54c2.08-2.87,3.78-4.22,8.86-0.53l1.91-2.63l-19.19-13.91l-1.91,2.63c5.09,3.69,4.13,5.76,2.13,8.51l-17.64,24.34
			C1106.35,277,1104.66,278.36,1099.68,274.76z M1182.78,336.6c-2.89,5.84-3.97,7.89-0.71,11.47l-2.41,2.18l-15.14-16.7l2.41-2.18
			c1.99,2.19,3.69,4.07,5.4,2.51c0.32-0.29,0.86-0.88,1.31-1.78l2.67-5.44l-10.43-11.51l-3.08,1.23c-1.3,0.5-2.66,1.05-3.46,1.77
			c-2.41,2.18,0.16,5.02,1.28,6.25l-2.41,2.18l-11.06-12.2l2.41-2.18c2.52,2.78,5.01,3.16,12.78,0.11l36.02-14.04l2.23,2.46
			L1182.78,336.6z M1185.95,307.3l-16.58,6.55l8.64,9.53L1185.95,307.3z M1221.68,332.09l2.85-1.71l6,9.29
			c0.93,1.55,3.05,4.66,5.01,8.2c2,3.6,4.02,7.53,4.9,10.54c1.45,4.94,1.02,11.52-5.11,15.21c-4.03,2.42-9.47,2.48-15.24-3.06
			c0.04,4.27-1.31,6.94-5.11,14.79c-3.58,7.38-3.86,9.15-2.28,12.33l-2.79,1.67l-6.59-10.96c0.89-2.73,2.78-6.31,4.62-9.85
			l2.91-5.54c3.61-6.89,3.78-7.33,0.5-12.78l-0.93-1.55l-10.71,6.44c-3.04,1.82-4.57,3.34-1.22,8.91l-2.79,1.67l-12.36-20.56
			l2.79-1.67c3.2,5.33,5.15,4.92,8.37,2.98l25.89-15.55C1223.48,339.02,1224.96,337.54,1221.68,332.09z M1213.77,356.66l1.15,1.92
			c2.31,3.84,6.54,10.74,14.9,5.72c8.3-4.99,3.6-12.53,0.42-17.53L1213.77,356.66z M1252.59,387.9c2.44,6.03,0.84,7.29-2.57,8.68
			l-27.86,11.26c-3.55,1.43-5.5,1.44-7.88-4.45l-3.01,1.22l9.1,22.5l3.01-1.22c-2.44-6.03-0.78-7.32,2.57-8.68l27.86-11.26
			c3.55-1.43,5.5-1.44,7.88,4.45l3.01-1.22l-9.1-22.5L1252.59,387.9z M761.51,733.23c2.62-2.79,4.39-3.61,8.97,0.7l2.23-2.37
			l-17.52-16.48l-2.23,2.37c4.74,4.45,3.62,6.28,1.19,8.86l-20.59,21.89c-2.52,2.68-4.28,3.71-8.91-0.65l-2.23,2.37l31.05,29.2
			l11.15-11.43l-2.37-2.23c-9.27,7.85-15.9,1.61-19.9-2.15c-4.84-4.55-3.41-6.08,0.31-10.03L761.51,733.23z M814.97,806.08
			c-1.05,6.44-1.47,8.7,2.69,11.18l-1.66,2.79l-19.38-11.51l1.66-2.8c2.55,1.51,4.72,2.8,5.9,0.82c0.22-0.37,0.57-1.09,0.73-2.08
			l0.95-5.99l-13.35-7.93l-2.58,2.08c-1.1,0.86-2.23,1.78-2.79,2.71c-1.66,2.79,1.63,4.75,3.06,5.6l-1.66,2.8l-14.16-8.41l1.66-2.79
			c3.23,1.92,5.72,1.55,12.25-3.65l30.32-24.01l2.86,1.7L814.97,806.08z M809.39,777.14l-13.93,11.14l11.06,6.57L809.39,777.14z
			 M870.02,793.81l0.9-3.13l-19.93-5.73l-0.9,3.12c3.82,1.1,4.48,2.19,4.55,9.27l0.19,39.37l4.65,1.34l20.54-29.88l2.24,36.42
			l4.72,1.36l19.74-32.59c3.89-6.47,4.64-7.24,9.55-6.28l0.9-3.12l-15.76-4.53l-0.9,3.12c1.92,0.63,5.45,1.72,4.37,5.47
			c-0.28,0.97-1.09,2.47-1.64,3.36l-11.97,19.94l-2.15-35.42l-4.44-1.28l-20,29.06l-0.13-24.92c-0.01-2.33,0.05-3.07,0.29-3.9
			C865.51,792.51,867.59,793.11,870.02,793.81z M998.51,815.44l3.31-0.25l-1.31-12.36l-39.04,2.98l0.25,3.24
			c6.41-0.49,7.01,1.64,7.27,5.1l2.29,29.97c0.28,3.67-0.22,5.67-6.41,6.14l0.25,3.24l24.49-1.87l-0.25-3.24l-1.01,0.08
			c-6.41,0.49-6.75-2.09-6.98-5.12l-1.08-14.19l4.32-0.33c4.47-0.34,5.48,0.6,6.15,5.62l3.31-0.25l-1.21-15.85l-3.24,0.25
			c0.1,5.14-1.13,6.03-5.17,6.34l-4.47,0.34l-1.29-16.86l8.5-0.65C992.31,807.36,995.99,807.08,998.51,815.44z M1025.81,843.11
			l0.79,3.15l23.55-5.89l-0.79-3.15c-6.31,1.58-7.36-0.24-8.24-3.75l-7.29-29.16c-0.93-3.72-0.67-5.64,5.5-7.18l-0.79-3.15
			l-23.55,5.89l0.79,3.15c6.31-1.58,7.34,0.17,8.24,3.75l7.29,29.16C1032.24,839.64,1031.98,841.56,1025.81,843.11z M1081.73,805.96
			l-1.64,0.76l5.28,11.33c1.5,3.21,2.84,4.89,8.73,2.14l1.37,2.95l-21.74,10.14l-1.37-2.95c5.63-2.63,5.43-4.6,3.84-8.01
			l-12.77-27.37c-1.53-3.27-2.84-4.89-8.6-2.21l-1.4-3.01l9.86-5c1.64-0.76,4.95-2.55,8.68-4.13c3.79-1.61,7.91-3.21,10.99-3.77
			c5.07-0.93,11.57,0.19,14.59,6.67c1.99,4.26,1.48,9.67-4.64,14.84c4.26,0.41,6.76,2.03,14.17,6.62c6.96,4.33,8.69,4.79,12.02,3.56
			l1.37,2.95l-11.59,5.41c-2.62-1.17-5.98-3.43-9.32-5.62l-5.21-3.47C1087.91,803.48,1087.49,803.28,1081.73,805.96z
			 M1080.48,802.25c4.06-1.89,11.36-5.38,7.24-14.22c-4.09-8.77-12.09-4.89-17.39-2.25l8.12,17.42L1080.48,802.25z M1176.22,765.69
			l2.12,2.46l18.17-15.67l-2.12-2.46c-4.92,4.25-6.72,2.94-8.99,0.31l-19.63-22.76c-2.41-2.79-3.19-4.69,1.63-8.85l-2.12-2.46
			l-12.97,11.18l10,35.94l-34.08-15.17l-13.24,11.42l2.12,2.46c5.2-4.48,6.52-2.95,9.82,0.88l17.7,20.52
			c3.21,3.72,4.62,5.46-0.53,9.9l2.12,2.46l13.41-11.56l-2.12-2.46c-5.2,4.48-6.72,2.83-9.92-0.89l-18.59-21.56l39.23,17.5
			l1.64-1.42l-11.71-41.24l19.58,22.71C1180.09,759.67,1180.98,761.58,1176.22,765.69z M705.38,604.65
			c-24.95,14.27-13.07,36.72-13.07,36.72c3.51-4.61,4.28-17.27,4.28-17.27s3.17,7.74-0.48,17.9
			C706.03,638.51,712.57,622.11,705.38,604.65z M647.96,627.3c0,0,9.76,8.59,15.79,9.54c0,0-7.1-24.22-36.65-17.6
			c7.1,17.44,24.01,24.82,34.18,20.62C651.11,635.02,647.96,627.3,647.96,627.3z M648.81,606.14
			c-10.19-5.19-13.36-13.46-13.36-13.46s9.78,9.21,15.83,10.22c0,0-7.12-25.95-36.72-18.86
			C621.67,602.73,638.62,610.64,648.81,606.14z M640.44,571.95c-8.46-7.7-9.32-16.51-9.32-16.51s7,11.47,12.56,14.04
			c0,0,0-26.91-30.43-27.9C615.17,561.48,629.42,573.59,640.44,571.95z M637.3,535.34c-6.97-9.07-6.27-17.9-6.27-17.9
			s4.87,12.52,9.89,16.03c0,0,4.73-26.49-25.04-32.82C614.26,520.59,626.16,535.02,637.3,535.34z M670.71,520.99
			c0,0-0.1,8.86-7.86,17.26c11.12,0.69,24.27-12.61,24.48-32.6c-30.23,3.61-27.91,30.42-27.91,30.42
			C664.73,533.02,670.71,520.99,670.71,520.99z M670.52,555.7c0,0-0.41,8.85-8.45,16.98c11.09,1.07,24.69-11.77,25.58-31.74
			c-30.34,2.57-28.94,29.44-28.94,29.44C664.13,567.52,670.52,555.7,670.52,555.7z M687.52,572.74
			c-28.04,11.85-18.38,36.97-18.38,36.97c4.27-4.4,6.68-17.62,6.68-17.62s2.36,8.54-2.77,18.76
			C683.93,608.42,692.88,592,687.52,572.74z M683.64,649.93c-4.63-6.11-8.6-12.71-11.97-19.52
			c-17.34-37.28-19.95-80.33-20.39-120.96c-5.81,40.28-1.95,91.33,20.48,126.21C675.24,640.82,679.15,645.69,683.64,649.93z
			 M1256.42,636.84c6.03-0.94,15.79-9.54,15.79-9.54s-3.16,7.72-13.33,12.56c10.17,4.2,27.08-3.18,34.18-20.62
			C1263.52,612.62,1256.42,636.84,1256.42,636.84z M1268.88,602.9c6.05-1.01,15.83-10.22,15.83-10.22s-3.17,8.27-13.36,13.46
			c10.19,4.5,27.14-3.41,34.26-22.1C1276,576.95,1268.88,602.9,1268.88,602.9z M1276.49,569.47c5.56-2.57,12.56-14.04,12.56-14.04
			s-0.87,8.81-9.32,16.51c11.02,1.64,25.27-10.47,27.19-30.37C1276.49,542.57,1276.49,569.47,1276.49,569.47z M1289.14,517.45
			c0,0,0.7,8.83-6.27,17.9c11.14-0.32,23.03-14.75,21.42-34.68c-29.78,6.33-25.04,32.82-25.04,32.82
			C1284.27,529.97,1289.14,517.45,1289.14,517.45z M1260.75,536.07c0,0,2.32-26.81-27.91-30.42c0.2,19.99,13.36,33.29,24.48,32.6
			c-7.76-8.4-7.86-17.26-7.86-17.26S1255.43,533.02,1260.75,536.07z M1258.1,572.68c-8.05-8.13-8.45-16.98-8.45-16.98
			s6.39,11.82,11.81,14.68c0,0,1.4-26.87-28.94-29.44C1233.41,560.91,1247.01,573.74,1258.1,572.68z M1247.11,610.85
			c-5.13-10.22-2.77-18.76-2.77-18.76s2.41,13.22,6.68,17.62c0,0,9.66-25.11-18.38-36.97C1227.29,592,1236.24,608.42,1247.11,610.85
			z M1248.49,630.41c-3.37,6.82-7.34,13.41-11.97,19.52c4.5-4.24,8.4-9.12,11.88-14.28c22.43-34.87,26.29-85.95,20.48-126.21
			c-0.1,24.54-1.42,49.01-5.78,73.14C1260.19,599.05,1255.69,615.3,1248.49,630.41z M948.07,458.07c-2.82,0-5.11,2.29-5.11,5.11
			v115.84c0,2.82,2.29,5.11,5.11,5.11s5.11-2.29,5.11-5.11V463.18C953.18,460.36,950.89,458.07,948.07,458.07z M971.93,584.13
			c2.82,0,5.11-2.29,5.11-5.11V463.18c0-2.82-2.29-5.11-5.11-5.11c-2.82,0-5.11,2.29-5.11,5.11v115.84
			C966.82,581.84,969.11,584.13,971.93,584.13z M704.15,683.61c-1.22-0.48-2.6,0.12-3.08,1.34c-0.69,1.76-1.27,3.63-1.46,5.69
			c-0.68,4.49,1.63,10.25,6.43,11.8c13.2,4.01,19.85-14.08,14.18-24.04c-4.48-8.53-16.57-9.88-24.2-4.93
			c-7.2,4.97-8.24,14.6-6.39,22.46c0.71,2.76,4.76,2.19,4.69-0.68c0.35-8.78,2.85-17.73,13.29-16.13c2.49,0.42,4.19,1.44,5.27,3.32
			c2.28,3.7,1.39,14.03-4.68,13.46c-3.67-1.14-3.18-6.38-2.58-9.62C705.83,685.17,705.24,684.03,704.15,683.61z M1209.81,683.61
			c-1.22-0.48-2.6,0.12-3.08,1.34c-0.69,1.76-1.27,3.63-1.46,5.69c-0.68,4.49,1.63,10.25,6.43,11.8
			c13.2,4.01,19.85-14.08,14.18-24.04c-4.48-8.53-16.57-9.88-24.2-4.93c-7.2,4.97-8.24,14.6-6.39,22.46
			c0.71,2.76,4.76,2.19,4.69-0.68c0.35-8.78,2.85-17.73,13.29-16.13c2.49,0.42,4.19,1.44,5.27,3.32c2.28,3.7,1.39,14.03-4.68,13.46
			c-3.67-1.14-3.18-6.38-2.58-9.62C1211.49,685.17,1210.9,684.03,1209.81,683.61z M726.34,724.73c3.88,0,7.03-3.15,7.03-7.03
			c0-3.88-3.15-7.03-7.03-7.03c-3.88,0-7.03,3.15-7.03,7.03C719.31,721.58,722.45,724.73,726.34,724.73z M1189.84,710.67
			c-3.88,0-7.03,3.15-7.03,7.03c0,3.88,3.15,7.03,7.03,7.03c3.88,0,7.03-3.15,7.03-7.03
			C1196.87,713.82,1193.72,710.67,1189.84,710.67z M658.05,448.52c-1.22-0.48-2.6,0.12-3.08,1.34c-0.69,1.76-1.27,3.63-1.46,5.69
			c-0.68,4.49,1.63,10.25,6.43,11.8c13.2,4.01,19.85-14.08,14.18-24.04c-4.48-8.53-16.57-9.88-24.2-4.93
			c-7.2,4.97-8.24,14.6-6.39,22.46c0.71,2.76,4.76,2.19,4.69-0.68c0.35-8.78,2.85-17.73,13.29-16.13c2.49,0.42,4.19,1.44,5.27,3.32
			c2.28,3.7,1.39,14.03-4.68,13.46c-3.67-1.14-3.18-6.38-2.58-9.62C659.72,450.09,659.13,448.95,658.05,448.52z M1251.25,448.52
			c-1.22-0.48-2.6,0.12-3.08,1.34c-0.69,1.76-1.27,3.63-1.46,5.69c-0.68,4.49,1.63,10.25,6.43,11.8
			c13.2,4.01,19.85-14.08,14.18-24.04c-4.48-8.53-16.57-9.88-24.2-4.93c-7.2,4.97-8.24,14.6-6.39,22.46
			c0.71,2.76,4.76,2.19,4.69-0.68c0.35-8.78,2.85-17.73,13.29-16.13c2.49,0.42,4.19,1.44,5.27,3.32c2.28,3.7,1.39,14.03-4.68,13.46
			c-3.67-1.14-3.18-6.38-2.58-9.62C1252.93,450.09,1252.33,448.95,1251.25,448.52z"/>
	</g>
</g>
</svg>
